<svg id="Layer_1" data-name="Layer 1" xmlns="http://www.w3.org/2000/svg" viewBox="0 0 1919.58 471.29"><defs><style>.cls-1{fill:#f0bc84;}.cls-2{fill:#f0cca6;}.cls-3{fill:#d69d60;}.cls-11,.cls-4{fill:#3c2415;}.cls-5{fill:#603913;}.cls-6{fill:#4f2f10;}.cls-7{fill:#8dc73f;}.cls-8{fill:#a4d95c;}.cls-9{fill:#ed666b;}.cls-10{fill:#fff870;}.cls-11{font-size:200px;font-family:SugarpunchDEMO, Sugarpunch DEMO;}</style></defs><title>Virtual Foods - Logo</title><path class="cls-1" d="M1059,29.52c-135.47,0-245.28,84.4-245.28,188.52h490.55C1304.28,113.92,1194.47,29.52,1059,29.52Z" transform="translate(-21.12 -17.36)"/><path class="cls-2" d="M1059,69.24c135.47,0,245.28,44.68,245.28,148.79,0-104.12-109.81-188.52-245.28-188.52S813.72,113.92,813.72,218C813.72,113.92,923.53,69.24,1059,69.24Z" transform="translate(-21.12 -17.36)"/><path class="cls-3" d="M813.72,218h490.55a147.32,147.32,0,0,0-6.23-41.73H820A147.32,147.32,0,0,0,813.72,218Z" transform="translate(-21.12 -17.36)"/><path class="cls-4" d="M1316.44,230.2H801.56V218C801.56,107.38,917,17.36,1059,17.36s257.44,90,257.44,200.68Zm-490-24.32h465.14C1283.28,114.29,1182.13,41.68,1059,41.68S834.72,114.29,826.43,205.87Z" transform="translate(-21.12 -17.36)"/><path class="cls-5" d="M1312.7,289.49A39.53,39.53,0,0,1,1273.17,329H847.87a39.53,39.53,0,0,1-39.53-39.53h0A39.53,39.53,0,0,1,847.87,250h425.3a39.53,39.53,0,0,1,39.53,39.53Z" transform="translate(-21.12 -17.36)"/><path class="cls-6" d="M1324.84,288.43a51.36,51.36,0,0,0-8-26.63l-35.47-7.67-58.56,38.06-63-39.36-93.28,28.34-93.28-28.34-63,39.36-58.56-38.06-44.39,9.6,10.2-16a51.65,51.65,0,0,0-21.31,41.78c0,.51,0,1,0,1.53l50.7-11L910,321l66.76-41.73,89.77,27.28,89.77-27.28L1223,321l63.06-41Z" transform="translate(-21.12 -17.36)"/><path class="cls-4" d="M1273.17,341.19H847.87a51.7,51.7,0,1,1,0-103.39h425.3a51.7,51.7,0,0,1,0,103.39Zm-425.3-79.07a27.37,27.37,0,0,0,0,54.74h425.3a27.37,27.37,0,0,0,0-54.74Z" transform="translate(-21.12 -17.36)"/><polygon class="cls-7" points="1287.21 200.68 1037.88 200.68 788.55 200.68 752.77 256.92 820.68 242.23 881.49 281.76 946.36 241.22 1037.88 269.03 1129.41 241.22 1194.28 281.76 1255.09 242.23 1322.99 256.92 1287.21 200.68"/><polygon class="cls-8" points="752.77 256.92 788.55 200.68 792.61 244.76 826.75 232.6 834.88 228.8 898.28 256.92 944.6 227.97 1077.72 256.92 1131.17 227.97 1206.48 259.31 1188.19 277.96 1117.55 242.35 1028.21 265.31 964.88 244.15 914.22 257.98 875.64 277.96 820.68 242.23 752.77 256.92"/><path class="cls-4" d="M1215.52,313.54l-66.76-41.73L1059,299.1l-89.77-27.28-66.76,41.73-63.06-41L748,292.33l55-86.45h512l55,86.45-91.41-19.78Zm-63.24-68.21,63,39.36,58.56-38.06,44.39,9.6-16.56-26H816.35l-16.56,26,44.39-9.6,58.56,38.06,63-39.36L1059,273.68Z" transform="translate(-21.12 -17.36)"/><path class="cls-1" d="M1059,402H809.67c0,26.45,21.44,74.49,47.89,74.49h402.88c26.45,0,47.89-48,47.89-74.49Z" transform="translate(-21.12 -17.36)"/><path class="cls-3" d="M809.67,402c0,12.25,5.95,29.73,15.39,43.59h467.87c9.44-13.86,15.39-31.34,15.39-43.59H809.67Z" transform="translate(-21.12 -17.36)"/><path class="cls-4" d="M1260.44,488.65H857.56c-36.67,0-60.05-56.9-60.05-86.66V389.83h523V402C1320.49,431.74,1297.1,488.65,1260.44,488.65ZM823.19,414.15c4.68,23,20.7,50.17,34.37,50.17h402.88c13.68,0,29.69-27.22,34.37-50.17Z" transform="translate(-21.12 -17.36)"/><path class="cls-9" d="M1148.19,347.27c0,10.08-12,18.24-26.76,18.24H996.57c-14.78,0-26.76-8.17-26.76-18.24h0c0-10.08,12-18.24,26.76-18.24h124.85c14.78,0,26.76,8.17,26.76,18.24Z" transform="translate(-21.12 -17.36)"/><path class="cls-4" d="M1121.43,377.67H996.57c-21.82,0-38.92-13.36-38.92-30.41s17.1-30.41,38.92-30.41h124.85c21.82,0,38.92,13.36,38.92,30.41S1143.25,377.67,1121.43,377.67ZM996.57,341.19c-9.42,0-14.6,4.57-14.6,6.08s5.18,6.08,14.6,6.08h124.85c9.42,0,14.6-4.57,14.6-6.08s-5.18-6.08-14.6-6.08Z" transform="translate(-21.12 -17.36)"/><path class="cls-9" d="M969.81,347.27c0,10.08-12,18.24-26.76,18.24H818.2c-14.78,0-26.76-8.17-26.76-18.24h0c0-10.08,12-18.24,26.76-18.24H943.05c14.78,0,26.76,8.17,26.76,18.24Z" transform="translate(-21.12 -17.36)"/><path class="cls-4" d="M943.05,377.67H818.2c-21.82,0-38.92-13.36-38.92-30.41s17.1-30.41,38.92-30.41H943.05c21.83,0,38.92,13.36,38.92,30.41S964.88,377.67,943.05,377.67ZM818.2,341.19c-9.42,0-14.6,4.57-14.6,6.08s5.18,6.08,14.6,6.08H943.05c9.42,0,14.6-4.57,14.6-6.08s-5.18-6.08-14.6-6.08Z" transform="translate(-21.12 -17.36)"/><path class="cls-9" d="M1326.56,347.27c0,10.08-12,18.24-26.76,18.24H1174.95c-14.78,0-26.76-8.17-26.76-18.24h0c0-10.08,12-18.24,26.76-18.24H1299.8c14.78,0,26.76,8.17,26.76,18.24Z" transform="translate(-21.12 -17.36)"/><path class="cls-4" d="M1299.8,377.67H1174.95c-21.83,0-38.92-13.36-38.92-30.41s17.1-30.41,38.92-30.41H1299.8c21.82,0,38.92,13.36,38.92,30.41S1321.62,377.67,1299.8,377.67Zm-124.85-36.49c-9.42,0-14.6,4.57-14.6,6.08s5.18,6.08,14.6,6.08H1299.8c9.42,0,14.6-4.57,14.6-6.08s-5.18-6.08-14.6-6.08Z" transform="translate(-21.12 -17.36)"/><path class="cls-10" d="M1317.45,373.11H800.54s-14.19,34.46-13.17,56.76C804.61,416.7,1059,419.73,1059,419.73s254.39-3,271.63,10.14C1331.64,407.57,1317.45,373.11,1317.45,373.11Z" transform="translate(-21.12 -17.36)"/><path class="cls-4" d="M775.4,454.22l-.18-23.8c-1.1-24.29,12.52-58.16,14.08-61.95l3.1-7.53H1325.6l3.1,7.53c1.56,3.78,15.18,37.66,14.08,61.95l-1.06,23.23L1323.8,440c-4.26-1.69-32.09-8.37-204.3-8.37-35.09,0-60.33.3-60.37.3-.32,0-25.55-.3-60.65-.3-177.23,0-201.54,7.08-204.61,8.5Zm344.11-47c121.41,0,173.84,3.17,197.54,6.61a202.06,202.06,0,0,0-8-28.61H808.94a202.06,202.06,0,0,0-8,28.61c23.71-3.44,76.13-6.61,197.54-6.61,35.08,0,60.35.3,60.65.3C1059.18,407.56,1084.45,407.27,1119.51,407.27Z" transform="translate(-21.12 -17.36)"/><path class="cls-4" d="M1126,127l9.5,9.5c4.16,4.16,10.61-2.29,6.45-6.45l-9.5-9.5c-4.16-4.16-10.61,2.29-6.45,6.45Z" transform="translate(-21.12 -17.36)"/><path class="cls-4" d="M960.55,148.23l-6.26,13.13c-2.52,5.28,5.34,9.91,7.87,4.61l6.26-13.13c2.52-5.29-5.35-9.91-7.88-4.61Z" transform="translate(-21.12 -17.36)"/><path class="cls-4" d="M997.39,72.19l-14.18,9.27c-4.9,3.21-.33,11.11,4.61,7.88L1002,80.06c4.9-3.21.33-11.11-4.61-7.88Z" transform="translate(-21.12 -17.36)"/><path class="cls-4" d="M1021.86,123.51l10.6,12.62c3.79,4.51,10.21-2,6.45-6.45l-10.6-12.62c-3.79-4.51-10.21,2-6.45,6.45Z" transform="translate(-21.12 -17.36)"/><path class="cls-4" d="M1060.24,93.24l6.71,15.05c2,4.54,8.55,5.58,12.48,3.27,4.64-2.71,5.3-7.93,3.27-12.48L1076,84c-2-4.54-8.55-5.58-12.48-3.27-4.64,2.71-5.3,7.93-3.27,12.48Z" transform="translate(-21.12 -17.36)"/><path class="cls-4" d="M961.07,104.31l-12.3,11c-8.8,7.84,4.15,20.7,12.9,12.9l12.3-11c8.79-7.84-4.15-20.7-12.9-12.9Z" transform="translate(-21.12 -17.36)"/><path class="cls-4" d="M1029,171.62l-15.28-6.18c-4.61-1.87-10,2-11.22,6.37-1.44,5.21,1.76,9.35,6.37,11.22l15.28,6.18c4.61,1.87,10-2,11.22-6.37,1.44-5.21-1.76-9.35-6.37-11.22Z" transform="translate(-21.12 -17.36)"/><path class="cls-4" d="M1195.12,105.34l-16.47.68c-11.72.48-11.77,18.72,0,18.24l16.47-.68c11.72-.48,11.77-18.73,0-18.24Z" transform="translate(-21.12 -17.36)"/><path class="cls-4" d="M1101.79,70l12.54,6.46c5.22,2.69,9.83-5.18,4.61-7.88l-12.54-6.46c-5.22-2.69-9.83,5.18-4.61,7.87Z" transform="translate(-21.12 -17.36)"/><path class="cls-4" d="M1201.6,151.91l-11.79,12.74c-4,4.31,2.45,10.77,6.45,6.45l11.79-12.74c4-4.31-2.45-10.77-6.45-6.45Z" transform="translate(-21.12 -17.36)"/><path class="cls-4" d="M1082,159.26l-6.21,10.27c-3.05,5,4.84,9.63,7.88,4.61l6.21-10.27c3.05-5-4.84-9.63-7.87-4.61Z" transform="translate(-21.12 -17.36)"/><path class="cls-4" d="M910.2,129.36,917,141.7c2.83,5.16,10.7.55,7.88-4.61l-6.76-12.34c-2.83-5.15-10.7-.55-7.87,4.61Z" transform="translate(-21.12 -17.36)"/><text class="cls-11" transform="translate(2.6 329.91)">VIRTUAL</text><text class="cls-11" transform="translate(1373.73 334.15)">FOODS</text></svg>